PathFileType	4	(X/Y/Z)	P:\Projects\LMB_grand_challenge_database\project_only\opensim\experimental_data\SixthCompetition/DM_ngait_og9_new.trc
DataRate	CameraRate	NumFrames	NumMarkers	Units	OrigDataRate	OrigDataStartFrame	OrigNumFrames
120	120	8	68	mm	120	276	369
Frame#	Time	Sternum			Neck			R_Shoulder			L_Shoulder			Xiphoid			Thoracic			R_Asis			L_Asis			R_Psis			L_Psis			Lumbar			R_Elbow			R_ElbowMedial			R_ShoulderAnterior			R_ShoulderPosterior			R_Wrist			R_Radius			R_Ulna			L_Elbow			L_ElbowMedial			L_ShoulderAnterior			L_ShoulderPosterior			L_Wrist			L_Ulna			L_Radius			L_Thigh_Superior			L_Thigh_Inferior			L_Thigh_Lateral			L_Knee_Lateral			L_Knee_Medial			L_Patella			L_Shank_Superior			L_Shank_Inferior			L_Shank_Lateral			L_Ankle_Lateral			L_Ankle_Medial			R_Thigh_Superior			R_Thigh_Inferior			R_Thigh_Lateral			R_Knee_Lateral			R_Knee_Medial			R_Patella			R_Shank_Superior			R_Shank_Inferior			R_Shank_Lateral			R_Ankle_Lateral			RankleMedial			R_Heel			R_Toe			R_Midfoot_Medial			R_Midfoot_Lateral			R_Hindfoot			R_Midfoot_Superior			R_ToeMedial			R_ToeLateral			L_Heel			L_Toe			L_Midfoot_Medial			L_Midfoot_Lateral			L_Hindfoot			L_Midfoot_Superior			L_ToeMedial			L_ToeLateral			Oglobal			Sacral			Xglobal			Yglobal			Zglobal			
		X1	Y1	Z1	X2	Y2	Z2	X3	Y3	Z3	X4	Y4	Z4	X5	Y5	Z5	X6	Y6	Z6	X7	Y7	Z7	X8	Y8	Z8	X9	Y9	Z9	X10	Y10	Z10	X11	Y11	Z11	X12	Y12	Z12	X13	Y13	Z13	X14	Y14	Z14	X15	Y15	Z15	X16	Y16	Z16	X17	Y17	Z17	X18	Y18	Z18	X19	Y19	Z19	X20	Y20	Z20	X21	Y21	Z21	X22	Y22	Z22	X23	Y23	Z23	X24	Y24	Z24	X25	Y25	Z25	X26	Y26	Z26	X27	Y27	Z27	X28	Y28	Z28	X29	Y29	Z29	X30	Y30	Z30	X31	Y31	Z31	X32	Y32	Z32	X33	Y33	Z33	X34	Y34	Z34	X35	Y35	Z35	X36	Y36	Z36	X37	Y37	Z37	X38	Y38	Z38	X39	Y39	Z39	X40	Y40	Z40	X41	Y41	Z41	X42	Y42	Z42	X43	Y43	Z43	X44	Y44	Z44	X45	Y45	Z45	X46	Y46	Z46	X47	Y47	Z47	X48	Y48	Z48	X49	Y49	Z49	X50	Y50	Z50	X51	Y51	Z51	X52	Y52	Z52	X53	Y53	Z53	X54	Y54	Z54	X55	Y55	Z55	X56	Y56	Z56	X57	Y57	Z57	X58	Y58	Z58	X59	Y59	Z59	X60	Y60	Z60	X61	Y61	Z61	X62	Y62	Z62	X63	Y63	Z63	X64	Y64	Z64	X65	Y65	Z65	X66	Y66	Z66	X67	Y67	Z67	X68	Y68	Z68	

277	4.725	969.877	1381.21	180.843	807.3680000000001	1453.62	201.651	918.154	1397.88	359.112	862.222	1428.25	20.6945	997.725	1216.5	174.585	726.681	1262.38	193.279	937.735	988.818	309.686	925.6420000000001	984.068	33.0999	728.989	1012.51	210.103	725.119	1010	133.144	724.623	1061.05	173.298	880.433	1084.97	458.205	-0	0	0	-0	0	0	-0	0	0	935.5549999999999	810.414	437.742	933.568	819.795	394.172	891.3579999999999	816.693	452.894	902.179	1097.24	-85.7435	-0	0	0	-0	0	0	-0	0	0	1024.47	858.386	-70.24379999999999	981.874	856.919	-93.4885	1010.22	869.633	-25.4375	880.675	802.86	-0.026385	937.207	585.124	10.5568	974.266	681.011	28.2311	-0	0	0	-0	0	0	977.997	471.793	51.881	854.774	465.524	13.4968	632.903	322.019	48.7627	778.288	348.642	89.1216	-0	0	0	-0	0	0	885.247	797.301	335.036	938.53	589.04	283.701	983.8339999999999	724.162	305.269	-0	0	0	-0	0	0	1022.48	518.776	204.475	918.6900000000001	393.851	293.137	917.419	186.049	274.178	975.692	313.121	202.223	-0	0	0	-0	0	0	829.799	61.0573	219.28	1129.55	57.1491	222.209	1052.43	32.8041	169.761	1040.83	31.7569	286.452	930.307	28.7672	273.131	991.747	120.202	222.945	1095.47	43.7797	178.178	1088.7	43.059	270.362	517.623	304.467	132.566	653.175	52.9629	50.9119	611.592	98.9986	121.603	577.098	128.332	16.457	521.538	212.854	54.3545	644.171	198.705	74.7076	628.504	66.035	102.512	607.926	83.05759999999999	11.997	-0	0	0	727.054	1011.25	171.624	-200	0	0	-0	0	200	-0	200	0	
278	4.733333	978.174	1382.33	180.702	815.7380000000001	1454.94	202.147	927.396	1399.46	359.074	869.441	1429.41	20.8993	1005.58	1217.78	174.218	734.795	1263.61	194.363	945.588	989.95	310.326	932.718	984.808	33.2722	736.703	1014.24	211.175	732.63	1011.67	133.943	732.375	1062.77	174.138	891.953	1086.57	458.751	-0	0	0	-0	0	0	-0	0	0	948.543	812.503	437.396	945.793	822.103	393.884	904.934	818.505	452.915	903.797	1097.71	-86.4901	-0	0	0	-0	0	0	-0	0	0	1023.01	857.103	-71.77809999999999	980.725	856.718	-95.0501	1009.31	868.859	-27.0933	890.074	804.837	-0.331261	951.651	588.4589999999999	9.31864	986.889	684.496	28.0205	-0	0	0	-0	0	0	994.09	475.454	50.8458	870.768	467.571	12.8984	650.625	322.247	49.1262	795.404	350.806	88.6044	-0	0	0	-0	0	0	891.01	798.1	335.529	942.2430000000001	589.2329999999999	284.089	988.966	723.826	305.785	-0	0	0	-0	0	0	1025.16	517.678	204.85	920.3200000000001	393.86	293.245	917.651	186.276	274.593	976.903	312.937	202.418	-0	0	0	-0	0	0	829.785	61.1065	219.273	1129.46	57.1362	222.069	1052.42	32.6458	169.857	1040.78	31.7614	286.546	930.244	28.8451	273.178	991.795	120.163	222.908	1095.51	43.6742	178.15	1088.87	42.9277	270.097	535.287	302.948	133.074	675.067	54.5205	48.1477	632.76	99.2354	120.117	597.564	128.902	15.2966	540.65	212.126	54.0592	663.516	199.91	74.05880000000001	650.696	66.8177	100.605	628.9160000000001	84.6285	10.1476	-0	0	0	734.6660000000001	1012.96	172.559	-200	0	0	-0	0	200	-0	200	0	
279	4.741667	986.365	1383.66	180.344	824.179	1456.14	202.788	936.663	1401.05	359.145	876.423	1430.59	20.9355	1013.54	1218.83	173.769	742.818	1265.14	195.341	953.586	990.588	310.914	939.861	986.713	33.3427	744.446	1015.72	212.496	740.079	1013.11	134.758	740.024	1064.22	175.427	903.224	1088.04	459.109	-0	0	0	-0	0	0	-0	0	0	961.922	814.559	437.071	958.599	824.265	393.316	918.193	820.255	452.856	905.276	1098.38	-87.2569	-0	0	0	-0	0	0	-0	0	0	1021.66	856.385	-73.6494	979.3390000000001	856.451	-96.84690000000001	1008.34	868.101	-28.9643	899.101	806.888	-0.837429	965.861	591.481	8.26295	999.367	688.179	28.1195	-0	0	0	-0	0	0	1010.09	479.797	49.8448	886.682	469.454	12.1695	668.515	321.917	48.7222	812.523	352.598	88.1643	-0	0	0	-0	0	0	897.3099999999999	799.247	335.929	945.485	589.425	284.398	993.968	723.5170000000001	306.063	-0	0	0	-0	0	0	1027.75	517.1130000000001	205.336	922.072	394.032	293.363	917.8920000000001	186.252	274.672	978.09	312.787	202.621	-0	0	0	-0	0	0	829.8200000000001	61.1125	219.257	1129.57	56.9553	222.186	1052.44	32.6517	169.802	1040.82	31.7335	286.492	930.3579999999999	28.8426	273.15	991.813	120.149	222.887	1095.47	43.5696	178.139	1088.85	42.8405	270.023	553.384	300.646	133.081	697.675	55.6439	46.9303	654.751	98.9465	118.606	618.609	128.522	14.0826	560.489	210.494	53.6696	683.223	200.582	73.0966	673.1	67.6093	99.5047	650.996	84.9922	8.648300000000001	-0	0	0	742.263	1014.41	173.627	-200	0	0	-0	0	200	-0	200	0	
280	4.75	994.443	1384.68	179.922	832.562	1457.37	203.365	946.184	1402.59	359	883.245	1431.65	21.0703	1021.51	1220.12	173.393	751.074	1266.25	196.3	961.437	991.9690000000001	311.471	947.399	987.598	33.6362	752.241	1017.05	213.163	747.816	1014.54	135.294	747.816	1065.61	175.931	914.564	1089.69	459.461	-0	0	0	-0	0	0	-0	0	0	975.016	816.745	436.673	971.72	826.323	393.155	931.386	821.904	452.652	906.561	1098.87	-87.76000000000001	-0	0	0	-0	0	0	-0	0	0	1020.21	855.67	-75.5834	977.684	856.46	-98.64830000000001	1007.28	867.405	-30.7062	908.359	808.865	-1.10173	979.715	594.978	7.31202	1011.58	691.754	28.2978	-0	0	0	-0	0	0	1026.06	483.965	48.9793	902.627	471.588	11.5922	686.966	320.879	48.221	830.7670000000001	354.18	87.59180000000001	-0	0	0	-0	0	0	903.715	799.694	335.635	948.562	589.563	284.706	998.927	723.3049999999999	306.344	-0	0	0	-0	0	0	1030.07	516.302	205.623	923.36	394.172	293.649	918.2859999999999	186.337	274.75	979.294	312.637	202.862	-0	0	0	-0	0	0	829.798	61.1057	219.28	1129.59	56.9011	222.201	1052.35	32.4372	169.65	1040.87	31.8507	286.356	930.3869999999999	28.8874	273.2	991.985	120.165	222.561	1095.44	43.482	178.125	1089.05	42.9928	269.951	571.697	297.517	132.748	721.301	55.9263	45.5403	677.164	97.9521	117.967	640.385	126.921	13.4962	580.585	207.66	53.2304	703.463	200.261	72.6163	696.6950000000001	66.5836	98.0812	673.831	84.1828	7.74333	-0	0	0	750.029	1015.8	174.228	-200	0	0	-0	0	200	-0	200	0	
281	4.758333	1002.73	1385.55	179.397	840.956	1458.64	203.827	955.434	1404.17	358.838	890.297	1432.55	21.1285	1029.45	1220.98	172.966	759.171	1267.63	197.13	969.111	992.713	311.685	954.7329999999999	988.579	33.9923	759.873	1018.5	213.646	755.333	1015.97	135.89	755.539	1067.06	176.518	925.2329999999999	1091.07	459.654	-0	0	0	-0	0	0	-0	0	0	988.491	818.8390000000001	436.198	984.376	828.752	392.595	944.665	823.544	452.284	907.783	1099.54	-88.3001	-0	0	0	-0	0	0	-0	0	0	1018.56	854.966	-77.6388	975.765	856.324	-100.053	1006.35	866.8200000000001	-32.5851	917.1900000000001	810.6900000000001	-1.75486	993.534	598.36	6.25389	1024.02	695.319	28.6397	-0	0	0	-0	0	0	1041.52	488.458	48.234	918.35	473.758	10.7316	705.494	319.351	47.4543	848.356	355.17	87.0117	-0	0	0	-0	0	0	907.451	800.293	337.541	951.8150000000001	589.829	285.02	1003.87	723.0890000000001	306.495	-0	0	0	-0	0	0	1032.26	515.729	205.923	924.729	394.302	293.852	918.725	186.422	274.887	980.3819999999999	312.428	203.187	-0	0	0	-0	0	0	829.813	61.1381	219.254	1129.44	56.918	222.004	1052.42	32.5232	169.806	1040.81	31.7354	286.499	930.304	28.893	273.15	991.799	120.092	222.803	1095.46	43.4367	178.138	1089.08	42.9002	269.772	590.246	293.521	132.011	745.854	55.5758	45.0416	700.436	96.5243	117.245	663.136	124.692	12.7394	601.571	203.826	52.3556	724.227	199.563	72.0715	720.6420000000001	66.1391	98.1302	697.658	82.7418	7.14828	-0	0	0	757.603	1017.24	174.768	-200	0	0	-0	0	200	-0	200	0	
282	4.766667	1010.84	1386.68	178.981	849.415	1459.7	204.349	964.994	1405.5	358.591	897.303	1433.45	21.2618	1037.65	1221.89	172.734	767.35	1268.8	198.022	976.692	993.7380000000001	312.21	962.009	989.4400000000001	34.3587	767.4450000000001	1019.9	214.292	762.801	1017.45	136.461	763.159	1068.51	177.122	936.178	1092.45	460.15	-0	0	0	-0	0	0	-0	0	0	1001.85	821.09	435.674	997.035	830.422	391.697	958.1799999999999	825.102	451.655	909.039	1100.12	-88.8211	-0	0	0	-0	0	0	-0	0	0	1016.78	854.331	-79.6909	973.689	856.022	-101.561	1005.25	866.14	-34.6883	927.328	812.529	-1.19941	1007.15	601.455	5.74141	1035.69	698.961	29.1609	-0	0	0	-0	0	0	1056.86	492.922	47.7886	934.229	475.665	10.1606	724.809	317.229	46.662	866.131	355.85	86.60039999999999	-0	0	0	-0	0	0	912.977	801.354	337.978	954.769	590.237	285.23	1008.74	722.847	306.55	-0	0	0	-0	0	0	1034.44	514.982	206.253	926.0839999999999	394.436	294.086	919.228	186.599	275.007	981.306	312.488	203.481	-0	0	0	-0	0	0	829.79	61.1241	219.262	1129.59	56.827	222.164	1052.38	32.4883	169.778	1040.79	31.6325	286.471	930.285	28.8	273.149	991.787	120.038	222.832	1095.47	43.3911	178.081	1089.11	42.8744	269.772	609.008	288.543	130.824	771.292	54.5124	45.4133	724.754	94.6883	117.015	686.961	121.447	12.3163	623.0170000000001	199.092	51.6293	745.876	198.125	71.5027	745.699	64.5218	97.9396	722.744	80.3509	7.18194	-0	0	0	765.123	1018.68	175.377	-200	0	0	-0	0	200	-0	200	0	
283	4.775	1019.07	1387.42	178.398	857.8440000000001	1460.72	204.755	974.178	1406.72	358.219	904.578	1434.47	21.2547	1045.53	1222.5	172.31	775.4299999999999	1269.98	198.695	984.162	994.735	312.709	969.764	990.329	34.4405	775.097	1021.15	214.478	770.671	1018.8	136.632	770.907	1069.82	177.143	946.917	1093.91	460.472	-0	0	0	-0	0	0	-0	0	0	1015.19	823.131	435.06	1010.36	832.915	391.478	971.506	826.8200000000001	451.276	910.081	1100.68	-89.10209999999999	-0	0	0	-0	0	0	-0	0	0	1014.91	853.593	-81.8138	971.552	855.878	-103.007	1004.47	865.655	-36.4513	937.3150000000001	814.064	-0.875015	1020.52	604.745	5.2302	1047.51	702.547	29.5763	-0	0	0	-0	0	0	1071.9	497.166	47.3375	950.14	477.522	9.49668	744.071	314.456	45.538	884.388	356.329	85.9926	-0	0	0	-0	0	0	918.544	801.913	338.353	957.8869999999999	590.475	285.582	1013.55	722.649	306.555	-0	0	0	-0	0	0	1036.54	514.256	206.622	927.367	394.642	294.303	919.612	186.755	275.084	982.434	312.343	203.625	-0	0	0	-0	0	0	829.753	61.155	219.243	1129.7	56.8349	222.192	1052.34	32.5236	169.744	1040.75	31.6136	286.437	930.229	28.7755	273.126	991.739	120.048	222.84	1095.52	43.3791	178.159	1089.08	42.8221	269.805	628.013	282.801	129.348	797.904	53.6052	46.1258	749.671	92.4939	117.08	711.635	117.596	12.0591	645.194	193.343	50.5772	767.842	196.332	71.1879	771.447	63.1772	98.26349999999999	748.956	77.69580000000001	7.25238	-0	0	0	772.884	1019.98	175.555	-200	0	0	-0	0	200	-0	200	0	
284	4.783333	1027.3	1388.15	177.979	866.245	1461.75	205.009	983.624	1407.8	357.745	911.747	1435.07	21.0368	1053.49	1223.09	171.868	783.429	1271.12	199.308	991.833	995.5599999999999	312.828	977.172	991.016	34.6935	782.7089999999999	1022.26	214.805	778.229	1020.03	137.021	778.604	1070.99	177.476	957.617	1095.01	460.703	-0	0	0	-0	0	0	-0	0	0	1028.38	825.323	434.068	1023.3	835.17	390.662	984.487	828.216	450.626	911.097	1101.33	-89.34310000000001	-0	0	0	-0	0	0	-0	0	0	1013.2	853.2190000000001	-84.48309999999999	969.063	855.6660000000001	-104.3	1003.31	865.153	-38.5445	946.4690000000001	815.761	-1.09096	1033.46	607.9880000000001	4.99284	1058.99	706.076	30.2033	-0	0	0	-0	0	0	1086.44	501.604	47.2	965.8339999999999	479.319	8.90452	764.066	311.343	43.6803	902.09	356.401	85.3466	-0	0	0	-0	0	0	924.655	802.449	338.698	960.847	590.6369999999999	285.754	1018.38	722.384	306.518	-0	0	0	-0	0	0	1038.93	513.799	207.023	928.809	394.87	294.562	919.985	186.85	275.124	983.402	311.995	203.664	-0	0	0	-0	0	0	829.793	61.1559	219.238	1129.69	56.774	222.24	1052.36	32.3939	169.713	1040.78	31.5277	286.408	930.239	28.7746	273.085	991.764	119.95	222.789	1095.53	43.3653	178.144	1089.11	42.8484	269.805	646.998	276.403	126.9	825.724	52.2769	47.1365	775.083	90.1999	117.39	737.3579999999999	113.23	11.7847	668.35	186.947	49.0179	790.461	194.13	70.8051	798.562	61.9526	98.71639999999999	776.165	74.3905	7.76829	-0	0	0	780.4690000000001	1021.14	175.913	-200	0	0	-0	0	200	-0	200	0	
